<svg width="2266" height="528" viewBox="0 0 2266 528" fill="none" xmlns="http://www.w3.org/2000/svg">
<g clip-path="url(#paint0_angular_137_352_clip_path)" data-figma-skip-parse="true"><g transform="matrix(0 0.2475 -0.2145 0 214.5 247.5)"><foreignObject x="-1004.66" y="-1004.66" width="2009.32" height="2009.32"><div xmlns="http://www.w3.org/1999/xhtml" style="background:conic-gradient(from 90deg,rgba(24, 51, 157, 1) 0deg,rgba(29, 60, 184, 1) 76.1538deg,rgba(13, 27, 82, 1) 143.654deg,rgba(24, 51, 157, 1) 360deg);height:100%;width:100%;opacity:1"></div></foreignObject></g></g><path d="M132.479 131.747L0.692129 131.912L0.692055 32.978C0.692264 14.7648 14.1516 0 32.3476 0H132.479V65.8736V131.747Z" data-figma-gradient-fill="{&#34;type&#34;:&#34;GRADIENT_ANGULAR&#34;,&#34;stops&#34;:[{&#34;color&#34;:{&#34;r&#34;:0.11439502239227295,&#34;g&#34;:0.23758967220783234,&#34;b&#34;:0.72156864404678345,&#34;a&#34;:1.0},&#34;position&#34;:0.21153846383094788},{&#34;color&#34;:{&#34;r&#34;:0.050980392843484879,&#34;g&#34;:0.10588235408067703,&#34;b&#34;:0.32156863808631897,&#34;a&#34;:1.0},&#34;position&#34;:0.39903843402862549}],&#34;stopsVar&#34;:[{&#34;color&#34;:{&#34;r&#34;:0.11439502239227295,&#34;g&#34;:0.23758967220783234,&#34;b&#34;:0.72156864404678345,&#34;a&#34;:1.0},&#34;position&#34;:0.21153846383094788},{&#34;color&#34;:{&#34;r&#34;:0.050980392843484879,&#34;g&#34;:0.10588235408067703,&#34;b&#34;:0.32156863808631897,&#34;a&#34;:1.0},&#34;position&#34;:0.39903843402862549}],&#34;transform&#34;:{&#34;m00&#34;:2.6268675345293875e-14,&#34;m01&#34;:-429.0,&#34;m02&#34;:429.0,&#34;m10&#34;:495.0,&#34;m11&#34;:3.0310010144113386e-14,&#34;m12&#34;:-3.0310010144113386e-14},&#34;opacity&#34;:1.0,&#34;blendMode&#34;:&#34;NORMAL&#34;,&#34;visible&#34;:true}"/>
<g clip-path="url(#paint1_angular_137_352_clip_path)" data-figma-skip-parse="true"><g transform="matrix(0 0.2475 -0.2145 0 214.5 247.5)"><foreignObject x="-1004.66" y="-1004.66" width="2009.32" height="2009.32"><div xmlns="http://www.w3.org/1999/xhtml" style="background:conic-gradient(from 90deg,rgba(13, 60, 189, 1) 0deg,rgba(19, 48, 147, 1) 126.346deg,rgba(6, 74, 234, 1) 226.731deg,rgba(13, 60, 189, 1) 360deg);height:100%;width:100%;opacity:1"></div></foreignObject></g></g><path d="M429 131.912V0H132.479V65.8736V131.747L429 131.912Z" data-figma-gradient-fill="{&#34;type&#34;:&#34;GRADIENT_ANGULAR&#34;,&#34;stops&#34;:[{&#34;color&#34;:{&#34;r&#34;:0.074509806931018829,&#34;g&#34;:0.18823529779911041,&#34;b&#34;:0.57647061347961426,&#34;a&#34;:1.0},&#34;position&#34;:0.35096153616905212},{&#34;color&#34;:{&#34;r&#34;:0.026488535106182098,&#34;g&#34;:0.29055953025817871,&#34;b&#34;:0.91826921701431274,&#34;a&#34;:1.0},&#34;position&#34;:0.62980771064758301}],&#34;stopsVar&#34;:[{&#34;color&#34;:{&#34;r&#34;:0.074509806931018829,&#34;g&#34;:0.18823529779911041,&#34;b&#34;:0.57647061347961426,&#34;a&#34;:1.0},&#34;position&#34;:0.35096153616905212},{&#34;color&#34;:{&#34;r&#34;:0.026488535106182098,&#34;g&#34;:0.29055953025817871,&#34;b&#34;:0.91826921701431274,&#34;a&#34;:1.0},&#34;position&#34;:0.62980771064758301}],&#34;transform&#34;:{&#34;m00&#34;:2.6268675345293875e-14,&#34;m01&#34;:-429.0,&#34;m02&#34;:429.0,&#34;m10&#34;:495.0,&#34;m11&#34;:3.0310010144113386e-14,&#34;m12&#34;:-3.0310010144113386e-14},&#34;opacity&#34;:1.0,&#34;blendMode&#34;:&#34;NORMAL&#34;,&#34;visible&#34;:true}"/>
<g clip-path="url(#paint2_angular_137_352_clip_path)" data-figma-skip-parse="true"><g transform="matrix(0 0.2475 -0.2145 0 214.5 247.5)"><foreignObject x="-1004.66" y="-1004.66" width="2009.32" height="2009.32"><div xmlns="http://www.w3.org/1999/xhtml" style="background:conic-gradient(from 90deg,rgba(40, 78, 191, 1) 0deg,rgba(63, 96, 201, 1) 109.038deg,rgba(0, 47, 176, 1) 176.538deg,rgba(40, 78, 191, 1) 360deg);height:100%;width:100%;opacity:1"></div></foreignObject></g></g><path d="M132.479 230.846V131.747L0.692129 131.912V230.846L132.479 362.758V230.846Z" data-figma-gradient-fill="{&#34;type&#34;:&#34;GRADIENT_ANGULAR&#34;,&#34;stops&#34;:[{&#34;color&#34;:{&#34;r&#34;:0.25018492341041565,&#34;g&#34;:0.37733682990074158,&#34;b&#34;:0.78846156597137451,&#34;a&#34;:1.0},&#34;position&#34;:0.30288460850715637},{&#34;color&#34;:{&#34;r&#34;:0.0,&#34;g&#34;:0.18797756731510162,&#34;b&#34;:0.69230771064758301,&#34;a&#34;:1.0},&#34;position&#34;:0.49038460850715637}],&#34;stopsVar&#34;:[{&#34;color&#34;:{&#34;r&#34;:0.25018492341041565,&#34;g&#34;:0.37733682990074158,&#34;b&#34;:0.78846156597137451,&#34;a&#34;:1.0},&#34;position&#34;:0.30288460850715637},{&#34;color&#34;:{&#34;r&#34;:0.0,&#34;g&#34;:0.18797756731510162,&#34;b&#34;:0.69230771064758301,&#34;a&#34;:1.0},&#34;position&#34;:0.49038460850715637}],&#34;transform&#34;:{&#34;m00&#34;:2.6268675345293875e-14,&#34;m01&#34;:-429.0,&#34;m02&#34;:429.0,&#34;m10&#34;:495.0,&#34;m11&#34;:3.0310010144113386e-14,&#34;m12&#34;:-3.0310010144113386e-14},&#34;opacity&#34;:1.0,&#34;blendMode&#34;:&#34;NORMAL&#34;,&#34;visible&#34;:true}"/>
<path d="M330.16 230.846H132.479V362.758H264.596H330.16V230.846Z" fill="#5A5CF6"/>
<path d="M132.479 495V362.758H264.596L132.479 495Z" fill="url(#paint3_linear_137_352)"/>
<g clip-path="url(#paint4_angular_137_352_clip_path)" data-figma-skip-parse="true"><g transform="matrix(0 0.2475 -0.2145 0 214.5 247.5)"><foreignObject x="-1004.66" y="-1004.66" width="2009.32" height="2009.32"><div xmlns="http://www.w3.org/1999/xhtml" style="background:conic-gradient(from 90deg,rgba(39, 83, 247, 1) 0deg,rgba(16, 35, 105, 1) 90deg,rgba(39, 83, 247, 1) 360deg);height:100%;width:100%;opacity:1"></div></foreignObject></g></g><path d="M132.479 230.846V362.758L0.692129 230.846H132.479Z" data-figma-gradient-fill="{&#34;type&#34;:&#34;GRADIENT_ANGULAR&#34;,&#34;stops&#34;:[{&#34;color&#34;:{&#34;r&#34;:0.062745101749897003,&#34;g&#34;:0.13725490868091583,&#34;b&#34;:0.41176471114158630,&#34;a&#34;:1.0},&#34;position&#34;:0.250},{&#34;color&#34;:{&#34;r&#34;:0.15407729148864746,&#34;g&#34;:0.32850930094718933,&#34;b&#34;:0.97115385532379150,&#34;a&#34;:1.0},&#34;position&#34;:1.0}],&#34;stopsVar&#34;:[{&#34;color&#34;:{&#34;r&#34;:0.062745101749897003,&#34;g&#34;:0.13725490868091583,&#34;b&#34;:0.41176471114158630,&#34;a&#34;:1.0},&#34;position&#34;:0.250},{&#34;color&#34;:{&#34;r&#34;:0.15407729148864746,&#34;g&#34;:0.32850930094718933,&#34;b&#34;:0.97115385532379150,&#34;a&#34;:1.0},&#34;position&#34;:1.0}],&#34;transform&#34;:{&#34;m00&#34;:2.6268675345293875e-14,&#34;m01&#34;:-429.0,&#34;m02&#34;:429.0,&#34;m10&#34;:495.0,&#34;m11&#34;:3.0310010144113386e-14,&#34;m12&#34;:-3.0310010144113386e-14},&#34;opacity&#34;:1.0,&#34;blendMode&#34;:&#34;NORMAL&#34;,&#34;visible&#34;:true}"/>
<path d="M330.16 230.846H132.479V362.758H264.596H330.16V230.846Z" fill="#5A5CF6"/>
<path d="M568.191 495V238.467H515.067V142.704H568.191V112.647C568.191 40.65 628.305 5.00098 700.302 5.00098C711.486 5.00098 726.165 5.69997 766.008 11.991V101.463H705.195C674.439 101.463 670.944 104.259 670.944 137.811V142.704H766.008V238.467H670.944V495H568.191ZM976.243 501.99C858.112 501.99 784.018 431.391 784.018 316.755C784.018 201.42 862.306 130.821 978.34 130.821C1094.37 130.821 1170.57 201.42 1170.57 316.056C1170.57 430.692 1093.68 501.99 976.243 501.99ZM887.47 316.755C887.47 372.675 915.43 405.528 976.243 405.528C1038.45 405.528 1067.11 371.976 1067.11 316.056C1067.11 260.136 1038.45 227.283 976.243 227.283C915.43 227.283 887.47 259.437 887.47 316.755ZM1216.11 495V5.69997H1317.47V495H1216.11ZM1363.56 495V5.69997H1464.92V246.156L1602.62 142.704H1761.29L1586.54 275.514L1746.61 495H1621.49L1504.76 334.23L1464.92 364.287V495H1363.56ZM1860.9 371.976C1862.3 395.742 1880.47 405.528 1921.01 406.227C1958.76 406.227 1987.42 404.13 1987.42 383.859C1987.42 372.675 1985.32 358.695 1936.39 352.404L1897.95 347.511C1800.09 334.23 1756.75 315.357 1756.75 244.758C1756.75 178.353 1816.16 130.821 1917.52 130.821C2023.07 130.821 2077.59 179.751 2084.58 253.146H1982.52C1981.83 230.079 1958.06 226.584 1917.52 225.885C1888.16 226.584 1857.4 229.38 1857.4 245.457C1857.4 258.738 1863 266.427 1905.63 272.019L1948.97 276.912C2045.43 288.096 2090.87 311.862 2090.87 383.859C2090.87 457.254 2028.66 501.291 1921.01 501.99C1810.57 501.291 1761.64 452.361 1758.15 371.976H1860.9Z" fill="white"/>
<path d="M2141.87 465.642C2141.87 404.13 2236.94 403.431 2236.94 465.642C2236.94 527.853 2141.87 527.853 2141.87 465.642Z" fill="#0918D0"/>
<defs>
<clipPath id="paint0_angular_137_352_clip_path"><path d="M132.479 131.747L0.692129 131.912L0.692055 32.978C0.692264 14.7648 14.1516 0 32.3476 0H132.479V65.8736V131.747Z"/></clipPath><clipPath id="paint1_angular_137_352_clip_path"><path d="M429 131.912V0H132.479V65.8736V131.747L429 131.912Z"/></clipPath><clipPath id="paint2_angular_137_352_clip_path"><path d="M132.479 230.846V131.747L0.692129 131.912V230.846L132.479 362.758V230.846Z"/></clipPath><clipPath id="paint4_angular_137_352_clip_path"><path d="M132.479 230.846V362.758L0.692129 230.846H132.479Z"/></clipPath><linearGradient id="paint3_linear_137_352" x1="214.5" y1="0" x2="214.5" y2="495" gradientUnits="userSpaceOnUse">
<stop offset="0.610577" stop-color="#03045D"/>
<stop offset="0.899038" stop-color="#797BFF"/>
</linearGradient>
</defs>
</svg>
